<svg width="32" height="32" viewBox="0 0 32 32" fill="none" xmlns="http://www.w3.org/2000/svg">
<circle cx="16" cy="16" r="16" fill="#FFF6E8"/>
<path fill-rule="evenodd" clip-rule="evenodd" d="M21.2069 11.2806L22.5428 13.5441C23.2515 14.7446 24.044 16.0864 24.3835 16.6592C24.5629 16.9524 24.6482 17.2936 24.6276 17.6368C24.5114 19.746 22.8047 21.418 20.6934 21.4907C20.6792 21.4912 20.6651 21.4912 20.6509 21.4907C18.5387 21.4199 16.8304 19.748 16.7138 17.6381C16.6917 17.2932 16.776 16.9497 16.9553 16.6542L20.1306 11.2803C20.243 11.0899 20.4477 10.9732 20.6688 10.9732C20.89 10.9733 21.0946 11.0902 21.2069 11.2806ZM20.6683 12.8274L18.0247 17.3016C17.9775 17.3789 17.9553 17.4689 17.9613 17.5593L17.9618 17.5668C18.0411 19.0243 19.2155 20.1811 20.6716 20.2406C22.1269 20.1798 23.3 19.0233 23.3796 17.5666L23.3798 17.5626C23.3852 17.474 23.3631 17.3858 23.3165 17.3102L23.3107 17.3008C22.9718 16.7292 22.1766 15.3826 21.4664 14.1796L20.6683 12.8274Z" fill="#FBAB34"/>
<path fill-rule="evenodd" clip-rule="evenodd" d="M16.7415 17.267C16.7415 16.9218 17.0213 16.642 17.3665 16.642H23.9716C24.3168 16.642 24.5966 16.9218 24.5966 17.267C24.5966 17.6122 24.3168 17.892 23.9716 17.892H17.3665C17.0213 17.892 16.7415 17.6122 16.7415 17.267Z" fill="#FBAB34"/>
<path fill-rule="evenodd" clip-rule="evenodd" d="M11.3345 13.708C11.5556 13.708 11.7603 13.8249 11.8727 14.0154L15.0472 19.3958C15.2253 19.6901 15.309 20.032 15.2868 20.3753C15.1711 22.4841 13.4644 24.156 11.3532 24.2279C11.3392 24.2283 11.3252 24.2283 11.3112 24.2279C9.19812 24.1576 7.48879 22.4848 7.37291 20.3737L7.37306 20.3764C7.35253 20.0295 7.43972 19.6848 7.62259 19.3895L10.7962 14.0152C10.9086 13.8247 11.1133 13.7079 11.3345 13.708ZM11.3341 15.5625L8.69521 20.0314L8.68661 20.0455C8.6385 20.1223 8.61553 20.2121 8.62088 20.3025L8.62104 20.3052C8.70103 21.7625 9.87573 22.9187 11.3317 22.9778C12.787 22.9176 13.9602 21.7609 14.0389 20.3042L14.0393 20.296C14.0453 20.2069 14.0236 20.1183 13.9772 20.0421L13.9725 20.0344L11.3341 15.5625Z" fill="#FBAB34"/>
<path fill-rule="evenodd" clip-rule="evenodd" d="M7.40398 20.0017C7.40398 19.6565 7.68381 19.3767 8.02898 19.3767H14.6341C14.9793 19.3767 15.2591 19.6565 15.2591 20.0017C15.2591 20.3469 14.9793 20.6267 14.6341 20.6267H8.02898C7.68381 20.6267 7.40398 20.3469 7.40398 20.0017Z" fill="#FBAB34"/>
<path fill-rule="evenodd" clip-rule="evenodd" d="M21.2684 11.4225C21.3655 11.7538 21.1756 12.101 20.8443 12.198L11.5076 14.9328C11.1764 15.0298 10.8292 14.8399 10.7322 14.5086C10.6351 14.1774 10.825 13.8302 11.1563 13.7332L20.493 10.9984C20.8242 10.9014 21.1714 11.0913 21.2684 11.4225Z" fill="#FBAB34"/>
<path fill-rule="evenodd" clip-rule="evenodd" d="M15.3336 9.37256C15.6788 9.37256 15.9586 9.65238 15.9586 9.99756V13.1613C15.9586 13.5065 15.6788 13.7863 15.3336 13.7863C14.9884 13.7863 14.7086 13.5065 14.7086 13.1613V9.99756C14.7086 9.65238 14.9884 9.37256 15.3336 9.37256Z" fill="#FBAB34"/>
</svg>
