<svg width="32" height="32" viewBox="0 0 32 32" fill="none" xmlns="http://www.w3.org/2000/svg">
<path d="M28.0051 12.6652V8.66358C28.0051 6.82186 26.5121 5.32886 24.6704 5.32886H7.32984C5.48812 5.32886 3.99512 6.82186 3.99512 8.66358V13.3322" stroke="#FBAB34" stroke-width="1.5" stroke-linecap="round" stroke-linejoin="round"/>
<path d="M28.0049 19.3347V23.3364C28.0049 25.1781 26.5119 26.6711 24.6702 26.6711H14.666" stroke="#FBAB34" stroke-width="1.5" stroke-linecap="round" stroke-linejoin="round"/>
<path d="M3.99507 26.6713V18.668" stroke="#FBAB34" stroke-width="1.5" stroke-linecap="round" stroke-linejoin="round"/>
<path d="M6.74312 17.334V18.6679" stroke="#FBAB34" stroke-width="1.5" stroke-linecap="round" stroke-linejoin="round"/>
<path d="M6.74312 26.6711V28.005" stroke="#FBAB34" stroke-width="1.5" stroke-linecap="round" stroke-linejoin="round"/>
<path fill-rule="evenodd" clip-rule="evenodd" d="M3.99512 22.6694H8.66373C9.76876 22.6694 10.6646 23.5652 10.6646 24.6703V24.6703C10.6646 25.7753 9.76876 26.6711 8.66373 26.6711H3.99512V22.6694Z" stroke="#FBAB34" stroke-width="1.5" stroke-linecap="round" stroke-linejoin="round"/>
<path fill-rule="evenodd" clip-rule="evenodd" d="M3.99512 18.668H8.19687C9.3019 18.668 10.1977 19.5638 10.1977 20.6688V20.6688C10.1977 21.7738 9.3019 22.6696 8.19687 22.6696H3.99512V18.668Z" stroke="#FBAB34" stroke-width="1.5" stroke-linecap="round" stroke-linejoin="round"/>
<path fill-rule="evenodd" clip-rule="evenodd" d="M24.6697 12.6653H28.0044C28.7411 12.6653 29.3383 13.2625 29.3383 13.9992V18.0008C29.3383 18.7375 28.7411 19.3347 28.0044 19.3347H24.6697C22.828 19.3347 21.335 17.8417 21.335 16V16C21.335 14.1583 22.828 12.6653 24.6697 12.6653V12.6653Z" stroke="#FBAB34" stroke-width="1.5" stroke-linecap="round" stroke-linejoin="round"/>
<path d="M10.6641 11.9985H17.3335" stroke="#FBAB34" stroke-width="1.5" stroke-linecap="round" stroke-linejoin="round"/>
</svg>
